<svg xmlns="http://www.w3.org/2000/svg" viewBox="0 0 200 200">
      <rect x="3" y="3" width="194" height="194" rx="34" fill="#14151b"/>
      <rect x="3" y="3" width="194" height="194" rx="34" fill="none" stroke="#33343f" stroke-width="2"/>
      <rect x="13" y="13" width="174" height="174" rx="25" fill="none" stroke="#33343f" stroke-width="1" opacity="0.5"/>
      <rect x="9" y="9" width="7" height="7" rx="1.5" fill="#7fb8ff"/>
      <rect x="184" y="9" width="7" height="7" rx="1.5" fill="#33343f"/>
      <rect x="9" y="184" width="7" height="7" rx="1.5" fill="#33343f"/>
      <rect x="184" y="184" width="7" height="7" rx="1.5" fill="#33343f"/>
      <g transform="translate(100,100)" stroke="#8a8d9e" fill="#8a8d9e" opacity="0.55"><g transform="rotate(50)"><line x1="0" y1="0" x2="56" y2="0" stroke-width="3"/><rect x="50" y="-5" width="10" height="10" stroke="none"/><line x1="63" y1="-9" x2="63" y2="9" stroke-width="3"/><line x1="70" y1="-9" x2="70" y2="9" stroke-width="3"/><line x1="77" y1="-9" x2="77" y2="9" stroke-width="3"/><line x1="84" y1="-9" x2="84" y2="9" stroke-width="3"/><line x1="92" y1="-6" x2="92" y2="6" stroke-width="2.5"/></g><g transform="rotate(140)"><line x1="0" y1="0" x2="56" y2="0" stroke-width="3"/><rect x="50" y="-5" width="10" height="10" stroke="none"/><line x1="63" y1="-9" x2="63" y2="9" stroke-width="3"/><line x1="70" y1="-9" x2="70" y2="9" stroke-width="3"/><line x1="77" y1="-9" x2="77" y2="9" stroke-width="3"/><line x1="84" y1="-9" x2="84" y2="9" stroke-width="3"/><line x1="92" y1="-6" x2="92" y2="6" stroke-width="2.5"/></g><g transform="rotate(230)"><line x1="0" y1="0" x2="56" y2="0" stroke-width="3"/><rect x="50" y="-5" width="10" height="10" stroke="none"/><line x1="63" y1="-9" x2="63" y2="9" stroke-width="3"/><line x1="70" y1="-9" x2="70" y2="9" stroke-width="3"/><line x1="77" y1="-9" x2="77" y2="9" stroke-width="3"/><line x1="84" y1="-9" x2="84" y2="9" stroke-width="3"/><line x1="92" y1="-6" x2="92" y2="6" stroke-width="2.5"/></g><g transform="rotate(320)"><line x1="0" y1="0" x2="56" y2="0" stroke-width="3"/><rect x="50" y="-5" width="10" height="10" stroke="none"/><line x1="63" y1="-9" x2="63" y2="9" stroke-width="3"/><line x1="70" y1="-9" x2="70" y2="9" stroke-width="3"/><line x1="77" y1="-9" x2="77" y2="9" stroke-width="3"/><line x1="84" y1="-9" x2="84" y2="9" stroke-width="3"/><line x1="92" y1="-6" x2="92" y2="6" stroke-width="2.5"/></g></g>
      <g transform="translate(100,100)" stroke="#e8e8ef" fill="#e8e8ef"><g transform="rotate(45)"><line x1="0" y1="0" x2="56" y2="0" stroke-width="3"/><rect x="50" y="-5" width="10" height="10" stroke="none"/><line x1="63" y1="-9" x2="63" y2="9" stroke-width="3"/><line x1="70" y1="-9" x2="70" y2="9" stroke-width="3"/><line x1="77" y1="-9" x2="77" y2="9" stroke-width="3"/><line x1="84" y1="-9" x2="84" y2="9" stroke-width="3"/><line x1="92" y1="-6" x2="92" y2="6" stroke-width="2.5"/></g><g transform="rotate(135)"><line x1="0" y1="0" x2="56" y2="0" stroke-width="3"/><rect x="50" y="-5" width="10" height="10" stroke="none"/><line x1="63" y1="-9" x2="63" y2="9" stroke-width="3"/><line x1="70" y1="-9" x2="70" y2="9" stroke-width="3"/><line x1="77" y1="-9" x2="77" y2="9" stroke-width="3"/><line x1="84" y1="-9" x2="84" y2="9" stroke-width="3"/><line x1="92" y1="-6" x2="92" y2="6" stroke-width="2.5"/></g><g transform="rotate(225)"><line x1="0" y1="0" x2="56" y2="0" stroke-width="3"/><rect x="50" y="-5" width="10" height="10" stroke="none"/><line x1="63" y1="-9" x2="63" y2="9" stroke-width="3"/><line x1="70" y1="-9" x2="70" y2="9" stroke-width="3"/><line x1="77" y1="-9" x2="77" y2="9" stroke-width="3"/><line x1="84" y1="-9" x2="84" y2="9" stroke-width="3"/><line x1="92" y1="-6" x2="92" y2="6" stroke-width="2.5"/></g><g transform="rotate(315)"><line x1="0" y1="0" x2="56" y2="0" stroke-width="3"/><rect x="50" y="-5" width="10" height="10" stroke="none"/><line x1="63" y1="-9" x2="63" y2="9" stroke-width="3"/><line x1="70" y1="-9" x2="70" y2="9" stroke-width="3"/><line x1="77" y1="-9" x2="77" y2="9" stroke-width="3"/><line x1="84" y1="-9" x2="84" y2="9" stroke-width="3"/><line x1="92" y1="-6" x2="92" y2="6" stroke-width="2.5"/></g><rect x="-5" y="-5" width="10" height="10" fill="none" stroke-width="2"/><g stroke-width="1.5"><line x1="-5" y1="-13" x2="-5" y2="-8"/><line x1="-13" y1="-5" x2="-8" y2="-5"/><line x1="5" y1="-13" x2="5" y2="-8"/><line x1="13" y1="-5" x2="8" y2="-5"/><line x1="-5" y1="13" x2="-5" y2="8"/><line x1="-13" y1="5" x2="-8" y2="5"/><line x1="5" y1="13" x2="5" y2="8"/><line x1="13" y1="5" x2="8" y2="5"/></g></g>
    </svg>